<?xml version="1.0" standalone="no"?>
<svg viewBox="0 0 200 200" xmlns="http://www.w3.org/2000/svg">
  <path fill="#A7F0BA" d="M36.1,-52.4C49.4,-47.6,64.7,-42,71.5,-31.4C78.4,-20.7,76.9,-4.9,74.7,10.7C72.4,26.4,69.3,41.9,61.1,55C52.9,68.2,39.7,79,26,78.3C12.4,77.6,-1.6,65.3,-18.1,60.9C-34.7,56.4,-53.8,59.8,-63.9,52.8C-74,45.8,-75,28.4,-73.4,13C-71.8,-2.3,-67.4,-15.6,-60.5,-26.3C-53.5,-37.1,-44,-45.3,-33.5,-51.4C-23,-57.5,-11.5,-61.5,-0.1,-61.4C11.4,-61.3,22.8,-57.2,36.1,-52.4Z" transform="translate(100 100)" />
</svg>
